<svg width="16" height="16" viewBox="0 0 16 16" fill="none" xmlns="http://www.w3.org/2000/svg">
<path d="M1.0002 15.2001C1.44202 15.2001 1.8002 14.8419 1.8002 14.4001C1.8002 13.9583 1.44202 13.6001 1.0002 13.6001C0.558367 13.6001 0.200195 13.9583 0.200195 14.4001C0.200195 14.8419 0.558367 15.2001 1.0002 15.2001Z" fill="#243256"/>
<path d="M3.8 15.2001C4.24183 15.2001 4.6 14.8419 4.6 14.4001C4.6 13.9583 4.24183 13.6001 3.8 13.6001C3.35817 13.6001 3 13.9583 3 14.4001C3 14.8419 3.35817 15.2001 3.8 15.2001Z" fill="#243256"/>
<path d="M6.60029 15.2001C7.04212 15.2001 7.40029 14.8419 7.40029 14.4001C7.40029 13.9583 7.04212 13.6001 6.60029 13.6001C6.15847 13.6001 5.80029 13.9583 5.80029 14.4001C5.80029 14.8419 6.15847 15.2001 6.60029 15.2001Z" fill="#243256"/>
<path d="M9.4001 15.2001C9.84193 15.2001 10.2001 14.8419 10.2001 14.4001C10.2001 13.9583 9.84193 13.6001 9.4001 13.6001C8.95827 13.6001 8.6001 13.9583 8.6001 14.4001C8.6001 14.8419 8.95827 15.2001 9.4001 15.2001Z" fill="#243256"/>
<path d="M12.2004 15.2001C12.6422 15.2001 13.0004 14.8419 13.0004 14.4001C13.0004 13.9583 12.6422 13.6001 12.2004 13.6001C11.7586 13.6001 11.4004 13.9583 11.4004 14.4001C11.4004 14.8419 11.7586 15.2001 12.2004 15.2001Z" fill="#243256"/>
<path d="M15.0002 15.2001C15.442 15.2001 15.8002 14.8419 15.8002 14.4001C15.8002 13.9583 15.442 13.6001 15.0002 13.6001C14.5584 13.6001 14.2002 13.9583 14.2002 14.4001C14.2002 14.8419 14.5584 15.2001 15.0002 15.2001Z" fill="#243256"/>
<path d="M11.6 2.8H10.8V1.24C10.8 1 10.64 0.84 10.4 0.84H5.6C5.36 0.84 5.2 1.04 5.2 1.24V2.8H4.4V1.24C4.4 0.56 4.92 0 5.6 0H10.4C11.08 0 11.6 0.56 11.6 1.24V2.8ZM15.2 2.8H13.8V12.4H15.2C15.64 12.4 16 12.04 16 11.6V3.6C16 3.16 15.64 2.8 15.2 2.8ZM3 2.8H13V12.4H3V2.8ZM2.2 2.8H0.8C0.36 2.8 0 3.16 0 3.6V11.6C0 12.04 0.36 12.4 0.8 12.4H2.2V2.8Z" fill="#243256"/>
</svg>
